
<svg version="1.0" xmlns="http://www.w3.org/2000/svg"
 width="249.000000pt" height="238.000000pt" viewBox="0 0 249.000000 238.000000"
 preserveAspectRatio="xMidYMid meet">

<g transform="translate(0.000000,238.000000) scale(0.100000,-0.100000)"
fill="#fa5f10" stroke="none">
<path d="M580 2176 c-162 -47 -283 -170 -325 -331 -16 -62 -21 -175 -7 -175 4
0 58 61 120 135 62 74 117 135 122 135 5 0 36 -16 70 -37 l61 -36 -6 -41 c-3
-23 -9 -54 -12 -70 -7 -40 8 -28 64 52 41 59 171 241 179 251 2 2 38 -10 81
-27 92 -34 93 -37 69 -164 -9 -45 -13 -84 -10 -87 2 -3 35 25 71 61 l67 67
-19 41 c-31 70 -123 155 -210 197 -69 33 -86 36 -173 39 -60 2 -114 -2 -142
-10z"/>
<path d="M1407 1971 l-27 -41 43 0 c71 0 78 -10 122 -192 l41 -163 224 0 225
0 11 45 c6 25 18 76 27 113 l15 67 -42 0 -42 0 -18 -75 -18 -75 -153 0 c-110
0 -155 3 -162 13 -10 12 -33 107 -33 133 0 12 32 14 190 14 l190 0 6 28 c3 15
7 33 10 40 3 9 -43 12 -205 12 l-208 0 -24 37 c-31 47 -66 72 -110 79 -32 6
-37 3 -62 -35z"/>
<path d="M692 1582 c-61 -87 -117 -164 -125 -170 -11 -9 -28 -6 -77 13 -35 14
-70 25 -77 25 -17 0 -16 10 12 115 13 49 23 91 21 93 -2 2 -35 -34 -74 -80
l-70 -83 21 -30 c100 -140 282 -215 449 -187 89 16 145 40 211 93 99 78 160
187 173 307 l6 57 -131 -130 -132 -130 -57 32 c-31 17 -61 38 -66 46 -6 10 -2
42 14 96 12 45 21 84 18 86 -3 3 -55 -66 -116 -153z"/>
<path d="M1632 1504 c-24 -16 -29 -53 -12 -85 7 -13 21 -19 44 -19 59 0 87 59
46 100 -24 24 -48 25 -78 4z"/>
<path d="M1892 1497 c-26 -28 -27 -45 -6 -75 17 -25 71 -31 92 -10 18 18 14
73 -6 91 -26 23 -55 21 -80 -6z"/>
<path d="M1674 1120 c-60 -12 -159 -65 -209 -111 -196 -181 -194 -505 4 -681
99 -88 242 -131 373 -112 249 36 427 276 388 522 -43 264 -290 434 -556 382z
m-218 -301 c3 -6 21 -66 39 -133 l32 -121 23 75 c55 187 54 185 86 185 29 0
30 -2 64 -122 19 -68 38 -123 41 -123 3 0 18 48 34 108 34 131 39 142 70 142
17 0 25 -6 25 -17 0 -10 -20 -90 -43 -178 l-43 -160 -39 0 -39 0 -33 115 c-18
63 -35 120 -36 125 -2 6 -12 -17 -21 -50 -9 -33 -26 -91 -37 -128 l-20 -68
-37 3 -37 3 -46 170 c-25 94 -44 173 -42 178 6 11 51 8 59 -4z m617 0 c65 -18
95 -102 52 -149 -10 -11 -13 -20 -7 -20 16 0 42 -53 42 -84 0 -14 -13 -40 -29
-58 -29 -33 -31 -33 -130 -36 l-101 -4 0 174 c0 96 3 178 7 181 10 11 124 8
166 -4z"/>
<path d="M1960 725 l0 -45 44 0 c62 0 76 7 76 41 0 35 -23 49 -79 49 l-41 0 0
-45z"/>
<path d="M1960 575 l0 -45 60 0 c50 0 61 3 71 21 8 16 8 28 0 45 -9 21 -17 24
-71 24 l-60 0 0 -45z"/>
<path d="M615 1094 c-194 -48 -347 -218 -363 -403 -5 -62 -4 -63 16 -52 40 21
97 13 131 -18 27 -25 31 -36 31 -78 0 -42 -5 -54 -30 -78 -16 -15 -45 -31 -64
-34 l-34 -6 32 -47 c41 -61 144 -140 219 -167 75 -27 212 -32 277 -8 96 33
125 50 181 104 102 97 149 196 149 313 l0 56 -55 27 c-31 15 -58 27 -61 27 -3
0 -3 -22 1 -49 5 -37 3 -50 -8 -54 -23 -9 -34 5 -55 68 -28 88 -35 122 -23
129 6 4 43 -9 83 -28 40 -18 74 -33 75 -32 1 1 -2 19 -8 40 -6 21 -8 44 -5 51
7 20 -84 126 -144 167 -30 20 -75 44 -100 53 -45 16 -207 28 -245 19z m261
-315 c25 -6 51 -21 59 -32 18 -26 19 -77 3 -112 -13 -30 -83 -69 -141 -79 -44
-8 -119 21 -136 52 -33 61 7 138 84 164 60 21 73 21 131 7z m-256 -61 c0 -6
-11 -34 -24 -62 -44 -96 -44 -96 12 -89 38 4 50 2 55 -9 3 -8 2 -20 -2 -26 -8
-13 -177 -59 -187 -50 -5 6 16 79 42 142 6 17 4 18 -28 12 -25 -4 -39 -2 -47
8 -20 24 -1 44 52 56 29 7 59 16 67 21 22 12 60 11 60 -3z"/>
<path d="M754 714 c-41 -20 -59 -57 -38 -79 37 -37 163 -1 173 50 8 42 -73 60
-135 29z"/>
<path d="M290 580 c-24 -24 -25 -38 -4 -68 18 -27 45 -28 67 -4 22 24 21 55
-1 75 -24 22 -38 21 -62 -3z"/>
</g>
</svg>
